<svg xmlns="http://www.w3.org/2000/svg" width="64.018" height="57.616"><defs><style>.a{fill:#009fe3}</style></defs><path class="a" d="M59.75 0H10.67A4.268 4.268 0 006.4 4.268v34.143H1.067A1.067 1.067 0 000 39.478a4.268 4.268 0 004.268 4.268H35.21v12.8a1.067 1.067 0 001.821.754l5.647-5.647 5.648 5.647a1.067 1.067 0 00.754.313 1.053 1.053 0 00.409-.081 1.067 1.067 0 00.658-.986v-12.8h3.2a4.268 4.268 0 004.268-4.268V5.335h5.335a1.067 1.067 0 001.067-1.067A4.268 4.268 0 0059.75 0zm-4.268 4.268v34.143h-4.268v2.134H55.2a2.134 2.134 0 01-1.847 1.067h-3.2v-1.067h-2.139v13.429l-4.58-4.58a1.067 1.067 0 00-1.509 0l-4.58 4.58V40.545H35.21v1.067H4.268a2.134 2.134 0 01-1.847-1.067h31.722v-2.134H8.536V4.268a2.134 2.134 0 012.134-2.134h45.406a4.225 4.225 0 00-.594 2.134zM57.9 3.2a2.134 2.134 0 013.694 0z"/><path class="a" d="M52.737 33.391l-1.367-2.449 1.372-2.447a1.067 1.067 0 00-.406-1.453 1.181 1.181 0 00-.079-.041l-2.547-1.166-.329-2.785a1.067 1.067 0 00-1.185-.934q-.041 0-.081.013l-2.751.545-1.9-2.06a1.1 1.1 0 00-1.554-.012l-.012.012-1.9 2.06-2.751-.545a1.067 1.067 0 00-1.254.84c-.005.027-.01.054-.013.081l-.329 2.785-2.547 1.168a1.067 1.067 0 00-.526 1.414q.019.041.041.079l1.372 2.444-1.372 2.447a1.067 1.067 0 00.406 1.453c.026.015.052.028.08.041l2.547 1.168.329 2.787a1.067 1.067 0 001.185.934q.041 0 .081-.013l2.751-.545 1.9 2.06a1.067 1.067 0 001.508.059c.02-.019.04-.038.059-.059l1.9-2.06 2.751.545a1.052 1.052 0 00.834-.184 1.067 1.067 0 00.427-.737l.329-2.785 2.547-1.168a1.067 1.067 0 00.526-1.414q-.02-.04-.042-.078zm-3.52-1.928l1.1 1.959-2.04.936a1.067 1.067 0 00-.615.845l-.262 2.233L45.195 37a1.052 1.052 0 00-.99.32l-1.524 1.652-1.524-1.65a1.067 1.067 0 00-.783-.342.963.963 0 00-.207.021l-2.205.436-.262-2.233a1.067 1.067 0 00-.615-.845l-2.04-.936 1.1-1.959a1.047 1.047 0 000-1.043l-1.1-1.959 2.04-.936a1.067 1.067 0 00.615-.845l.262-2.233 2.205.436a1.057 1.057 0 00.99-.32l1.524-1.655 1.524 1.65a1.051 1.051 0 00.99.32l2.205-.436.262 2.233a1.067 1.067 0 00.615.845l2.04.936-1.1 1.959a1.067 1.067 0 000 1.047z"/><path class="a" d="M42.679 25.607a5.335 5.335 0 105.335 5.335 5.335 5.335 0 00-5.335-5.335zm0 8.536a3.2 3.2 0 113.2-3.2 3.2 3.2 0 01-3.2 3.2zM22.873 7.12H41.16v1.662H22.873zm-9.143 5.819h36.573v2.494H13.73zm0 3.325h36.573v2.494H13.73zm.831 14.13H27.86v2.494H14.561z"/></svg>