<svg xmlns="http://www.w3.org/2000/svg" width="57.982" height="55.676"><defs><style>.a{fill:#009fe3}</style></defs><path class="a" d="M11.375 11.342h-.966a7.3 7.3 0 00-7.289 7.289v5.5a7.3 7.3 0 007.29 7.289h.966a7.3 7.3 0 007.289-7.289v-5.5a7.3 7.3 0 00-7.29-7.289zm5.358 12.792a5.362 5.362 0 01-5.357 5.357h-.966a5.362 5.362 0 01-5.357-5.357v-5.5a5.362 5.362 0 015.357-5.357h.966a5.362 5.362 0 015.357 5.357z"/><path class="a" d="M50.141 32.144h-5.129a7.846 7.846 0 00-3.069.628 11.066 11.066 0 00-10.475-7.553h-4.76a11.067 11.067 0 00-10.5 7.634 7.807 7.807 0 00-3.235-.707H7.841A7.851 7.851 0 000 39.986V54.71a.966.966 0 00.966.966h56.05a.966.966 0 00.966-.966V39.986a7.851 7.851 0 00-7.841-7.842zm-40.7 21.6H6.765V41.835H4.832v11.909h-2.9V39.986a5.917 5.917 0 013.619-5.446l3.888 3.887zM7.828 34.078h5.146-.006c.027 0 .053.006.081.007L10.44 36.7zm7.828 2.2V53.75h-4.284V38.5l3.928-3.93c.159.069.314.146.468.229a11.047 11.047 0 00-.113 1.475zm12.466 17.469h-5.654V36.306h-1.933v17.437h-2.947V36.274a9.133 9.133 0 016.317-8.674l4.216 5.823v20.32zM26 27.19c.236-.018.472-.037.712-.037h4.76c.309 0 .614.016.915.046l-3.274 4.293zm14.592 26.556h-2.824v-17.44h-1.932v17.437h-5.782V33.437l4.4-5.771a9.126 9.126 0 016.132 8.608zm5.991 0H42.52V36.274a11.078 11.078 0 00-.125-1.57c.1-.053.2-.11.3-.154l3.88 3.876v15.317zm-1.612-19.667h5.224l-2.615 2.609zm11.082 19.667h-2.9V41.478h-1.936v12.265h-2.705V38.5l3.946-3.946a5.917 5.917 0 013.592 5.435zM28.896 0a9.145 9.145 0 00-9.05 9.05v5.452a9.144 9.144 0 0018.288 0V9.054A9.145 9.145 0 0028.896 0zm7.306 14.506a7.212 7.212 0 01-14.423 0V9.054a7.212 7.212 0 0114.423 0z"/><path class="a" d="M48.547 11.342h-.966a7.3 7.3 0 00-7.289 7.289v5.5a7.3 7.3 0 007.29 7.289h.966a7.3 7.3 0 007.289-7.289v-5.5a7.3 7.3 0 00-7.29-7.289zm5.358 12.792a5.363 5.363 0 01-5.357 5.357h-.966a5.362 5.362 0 01-5.357-5.357v-5.5a5.362 5.362 0 015.357-5.357h.966a5.362 5.362 0 015.357 5.357z"/></svg>