<svg xmlns="http://www.w3.org/2000/svg" xmlns:xlink="http://www.w3.org/1999/xlink" width="1920" height="721"><defs><linearGradient id="a" x1=".007" y1="-.003" x2=".995" y2="1.005" gradientUnits="objectBoundingBox"><stop offset="0" stop-color="#68c5ff"/><stop offset="1" stop-color="#3239ff"/></linearGradient><linearGradient id="f" x1=".598" y1="-4.967" x2=".364" y2="-3.585" gradientUnits="objectBoundingBox"><stop offset="0" stop-color="#ffc431"/><stop offset="1" stop-color="#ff8300"/></linearGradient><linearGradient id="g" x1=".754" y1="-.742" x2=".275" y2=".849" xlink:href="#a"/><linearGradient id="h" x1="1.027" y1="-.298" x2=".024" y2=".797" gradientUnits="objectBoundingBox"><stop offset="0" stop-color="#ff0198"/><stop offset="1" stop-color="#5c00c4"/></linearGradient><linearGradient id="i" x1=".966" y1=".231" x2="-.053" y2="1.279" gradientUnits="objectBoundingBox"><stop offset="0" stop-color="#e001ff"/><stop offset="1" stop-color="#3239ff"/></linearGradient><linearGradient id="k" x1="1.211" y1="-.101" x2="-.064" y2="1.411" xlink:href="#a"/><linearGradient id="l" x1=".283" y1=".966" x2="1.619" y2="-.51" gradientUnits="objectBoundingBox"><stop offset="0" stop-color="#ff2f7f"/><stop offset=".158" stop-color="#ff3779"/><stop offset=".411" stop-color="#ff4e69"/><stop offset=".725" stop-color="#ff7450"/><stop offset="1" stop-color="#ff9b36"/></linearGradient><linearGradient id="m" x1="1.211" y1="-.101" x2="-.064" y2="1.411" xlink:href="#l"/><linearGradient id="n" x1=".622" y1="1.45" x2=".431" y2="-.656" xlink:href="#l"/><linearGradient id="o" x1=".622" y1="1.45" x2=".431" y2="-.656" gradientUnits="objectBoundingBox"><stop offset="0" stop-color="#ffd531"/><stop offset="1" stop-color="#ff8300"/></linearGradient><clipPath id="c"><path class="a" transform="translate(0 100)" d="M0 0h1920v721H0z"/></clipPath><clipPath id="d"><circle class="b" cx="91.03" cy="91.03" r="91.03" transform="rotate(-76.386 112.456 88.472)"/></clipPath><clipPath id="r"><circle class="b" cx="75.113" cy="75.113" r="75.113" transform="rotate(-76.445 92.717 73.02)"/></clipPath><style>.a{fill:url(#a)}.b,.j{fill:none}.d{opacity:.28}.e{clip-path:url(#d)}.f,.h{fill:#fff}.h{opacity:.29;mix-blend-mode:overlay;isolation:isolate}.j{stroke:#fff;stroke-miterlimit:10}.n{fill:url(#i)}</style></defs><path class="a" d="M0 0h1920v721H0z"/><g clip-path="url(#c)" transform="translate(0 -100)"><g transform="rotate(-180 1024.976 522.79)"><g class="d"><g class="e"><path class="f" d="M437.954-95.504l2.534 2.534L128.29 219.251l-2.534-2.534zm0 17.203l2.534 2.534L128.29 236.454l-2.534-2.534zm.005 17.207l2.534 2.534-312.21 312.21-2.534-2.534zm0 17.203l2.534 2.534-312.21 312.21-2.534-2.534zm0 17.202l2.534 2.534-312.21 312.21-2.534-2.534zm-.005 17.198l2.534 2.534L128.29 305.264l-2.534-2.534zm0 17.202l2.534 2.534L128.29 322.466l-2.534-2.534zm0 17.203l2.534 2.534L128.29 339.67l-2.534-2.534zm0 17.202l2.534 2.534L128.29 356.871l-2.534-2.534zm0 17.203l2.534 2.534L128.29 374.074l-2.534-2.534zm0 17.202l2.534 2.534L128.29 391.276l-2.534-2.534zm.005 17.208l2.534 2.534-312.21 312.21-2.534-2.534zm0 17.203l2.534 2.534-312.21 312.21-2.534-2.534zm-.005 17.197l2.534 2.534L128.29 442.884l-2.534-2.534zm0 17.203l2.534 2.534L128.29 460.087l-2.534-2.534zm0 17.202l2.534 2.534L128.29 477.29l-2.534-2.534zm0 17.203l2.534 2.534L128.29 494.492l-2.534-2.534z"/></g></g><g class="d"><g class="e"><path class="f" d="M1110.478 172.531l2.534 2.534-312.199 312.221-2.534-2.534zm0 17.203l2.534 2.534L800.813 504.49l-2.534-2.534zm.005 17.207l2.534 2.534-312.21 312.21-2.534-2.534zm0 17.203l2.534 2.534-312.21 312.21-2.534-2.534zm0 17.202l2.534 2.534-312.21 312.21-2.534-2.534zm-.005 17.198l2.534 2.534L800.813 573.3l-2.534-2.534zm0 17.202l2.534 2.534-312.199 312.221-2.534-2.534zm0 17.203l2.534 2.534-312.199 312.221-2.534-2.534zm0 17.202l2.534 2.534-312.199 312.221-2.534-2.534zm0 17.203l2.534 2.534L800.813 642.11l-2.534-2.534zm0 17.202l2.534 2.534-312.199 312.221-2.534-2.534zm.005 17.208l2.534 2.534-312.21 312.21-2.534-2.534zm0 17.203l2.534 2.534-312.21 312.21-2.534-2.534zm-.005 17.197l2.534 2.534L800.813 710.92l-2.534-2.534zm0 17.203l2.534 2.534-312.199 312.221-2.534-2.534zm0 17.202l2.534 2.534-312.199 312.221-2.534-2.534zm0 17.203l2.534 2.534-312.199 312.221-2.534-2.534z"/></g></g><path fill="#5417bb" d="M602.959 551.056h16.289v16.289h-16.289z"/><path class="h" d="M59.579 203.403h16.289v16.289H59.579z"/><path d="M964.328 161.952h29.427v29.427h-29.427zm38.374 32.959h13.329v13.329h-13.329z" style="isolation:isolate;mix-blend-mode:overlay" opacity=".58" fill="#fff"/><path class="f" d="M914.585 243.026a2.98 2.98 0 112.983 2.968 2.976 2.976 0 01-2.983-2.968zm-25.405 0a2.974 2.974 0 112.975 2.968 2.97 2.97 0 01-2.975-2.968zm25.405-18.998a2.98 2.98 0 112.983 2.974 2.981 2.981 0 01-2.983-2.974zm-25.405 0a2.974 2.974 0 112.975 2.974 2.974 2.974 0 01-2.975-2.974zm25.405-19.918a2.98 2.98 0 112.983 2.974 2.981 2.981 0 01-2.983-2.974zm-25.405 0a2.974 2.974 0 112.975 2.974 2.974 2.974 0 01-2.975-2.974zm-23.349 38.916a2.975 2.975 0 112.976 2.968 2.97 2.97 0 01-2.976-2.968zm-25.408 0a2.976 2.976 0 112.975 2.968 2.97 2.97 0 01-2.975-2.968zm25.408-18.998a2.975 2.975 0 112.976 2.974 2.974 2.974 0 01-2.976-2.974zm-25.408 0a2.976 2.976 0 112.975 2.974 2.974 2.974 0 01-2.975-2.974zm25.408-19.918a2.975 2.975 0 112.976 2.974 2.974 2.974 0 01-2.976-2.974zm-25.408 0a2.976 2.976 0 112.975 2.974 2.974 2.974 0 01-2.975-2.974z"/><path class="j" d="M1054.6 247.307h-63.357a10.559 10.559 0 01-10.56-10.559 10.559 10.559 0 0110.56-10.559h63.357a10.559 10.559 0 0110.559 10.559 10.559 10.559 0 01-10.559 10.559z"/><g transform="translate(489.829 538.084)"><circle class="f" cx="5.686" cy="5.686" r="5.686"/><circle class="f" cx="5.686" cy="5.686" r="5.686" transform="translate(31.408)"/><circle class="f" cx="5.686" cy="5.686" r="5.686" transform="translate(62.815)"/></g><g transform="translate(134.548 432.696)"><circle class="f" cx="3.86" cy="3.86" r="3.86"/><path class="f" d="M29.04 3.86A3.86 3.86 0 1125.18 0a3.86 3.86 0 013.86 3.86zm21.321 0A3.86 3.86 0 1146.501 0a3.86 3.86 0 013.86 3.86z"/></g><path class="h" d="M800.526 178.362L684.337 379.616a25.782 25.782 0 0022.329 38.674h232.382a25.782 25.782 0 0022.328-38.674L845.183 178.362a25.783 25.783 0 00-44.657 0zM336.263 580.596l116.193-201.253a25.784 25.784 0 00-22.329-38.675H197.741a25.784 25.784 0 00-22.329 38.675l116.193 201.253a25.783 25.783 0 0044.658 0zm558.011-92.21l-40 69.285a8.876 8.876 0 007.687 13.313h80a8.876 8.876 0 007.687-13.313l-40-69.285a8.877 8.877 0 00-15.374 0z"/><path d="M307.3 444.9l152.381-263.942c13.014-22.544-3.254-50.721-29.284-50.721H125.628c-26.03 0-42.3 28.178-29.284 50.721L248.728 444.9c13.016 22.538 45.552 22.538 58.572 0z" transform="translate(20.1 31.202)" fill="url(#f)"/><path d="M660.239 390.766l92.171-159.647a20.453 20.453 0 00-17.71-30.679H550.356a20.453 20.453 0 00-17.712 30.679l92.171 159.646a20.453 20.453 0 0035.424.001z" transform="translate(293.714 75.046)" fill="url(#g)"/><path d="M588.491 482.114l116.2-201.252a25.784 25.784 0 00-22.329-38.675H449.97a25.783 25.783 0 00-22.329 38.675l116.193 201.252a25.782 25.782 0 0044.657 0z" transform="translate(227.686 101.118)" fill="url(#h)"/><path class="n" d="M565.662 129.808L414.231 392.096c-12.935 22.4 3.233 50.4 29.1 50.4h302.861c25.867 0 42.035-28 29.1-50.4L623.864 129.808c-12.934-22.402-45.272-22.402-58.202 0z"/><path class="n" d="M582.537 362.794l-70.476 122.071a15.638 15.638 0 0013.544 23.458H666.56a15.638 15.638 0 0013.542-23.458l-70.477-122.071a15.639 15.639 0 00-27.088 0z"/><path d="M254.392 349.664L192.669 456.57a13.7 13.7 0 0011.861 20.544h123.445a13.7 13.7 0 0011.861-20.544l-61.723-106.906a13.7 13.7 0 00-23.721 0z" transform="translate(81.96 163.966)" fill="url(#k)"/><path d="M484.213 163.646l-47.622 82.481a10.568 10.568 0 009.151 15.851h95.242a10.567 10.567 0 009.151-15.851l-47.62-82.481a10.567 10.567 0 00-18.302 0z" transform="translate(234.563 48.768)" fill="url(#l)"/><path d="M156.477 323.318l-24.763 42.891a5.5 5.5 0 004.758 8.241H186a5.494 5.494 0 004.758-8.241l-24.763-42.891a5.494 5.494 0 00-9.518 0z" transform="translate(44.586 150.072)" fill="url(#m)"/><path d="M356.384 443.472l107.622-186.405a23.882 23.882 0 00-20.682-35.823H228.082a23.882 23.882 0 00-20.682 35.823l107.622 186.405a23.88 23.88 0 0041.362 0z" transform="translate(90.299 88.039)" fill="url(#n)"/><path d="M137.001 343.616l46.668-80.832a10.356 10.356 0 00-8.969-15.532H81.365a10.356 10.356 0 00-8.969 15.532l46.668 80.832a10.356 10.356 0 0017.937 0zm904.454 87.016l46.668-80.83a10.356 10.356 0 00-8.967-15.534H985.82a10.357 10.357 0 00-8.969 15.534l46.668 80.83a10.355 10.355 0 0017.936 0zM691.63 174.931l23.808-41.244a5.285 5.285 0 00-4.576-7.926h-47.62a5.285 5.285 0 00-4.576 7.926l23.811 41.24a5.283 5.283 0 009.153.004z" fill="url(#o)"/><rect class="j" width="84.476" height="21.119" rx="6.5" transform="translate(167.646 388.634)"/><g clip-path="url(#r)" transform="translate(348.732 216.511)"><path class="f" d="M210.103-145.101l2.091 2.09-257.608 257.627-2.09-2.091zm-.005 14.19l2.091 2.09L-45.41 128.815l-2.09-2.09zm.005 14.199l2.091 2.09-257.608 257.627-2.091-2.09zm.005 14.199l2.09 2.09-257.616 257.618-2.09-2.091zm-.005 14.19l2.091 2.09-257.608 257.627-2.09-2.091zm-.005 14.19l2.091 2.09-257.6 257.636-2.09-2.09zm.005 14.199l2.091 2.09-257.608 257.627-2.09-2.091zm-.005 14.19l2.091 2.09L-45.41 213.982l-2.09-2.09zm0 14.194l2.091 2.09L-45.41 228.176l-2.09-2.09zm.005 14.2l2.091 2.09-257.608 257.627-2.09-2.091zm-.005 14.189l2.091 2.09L-45.41 256.565l-2.09-2.09zm.005 14.199l2.091 2.09-257.608 257.627-2.091-2.09zm.005 14.2l2.09 2.09-257.616 257.618-2.09-2.091zm-.01 14.185l2.091 2.09L-45.41 299.149l-2.09-2.09zm0 14.194l2.091 2.09-257.6 257.636-2.09-2.09zm.005 14.2l2.091 2.09-257.608 257.627-2.09-2.091zm-.005 14.189l2.091 2.09L-45.41 341.732l-2.09-2.09z"/></g><path d="M93.591 283.885a22.743 22.743 0 1022.741 22.743 22.743 22.743 0 00-22.741-22.743zm0 33.823a11.08 11.08 0 1111.081-11.079 11.08 11.08 0 01-11.081 11.079zm974.006 50.912a22.743 22.743 0 1022.743 22.743 22.743 22.743 0 00-22.743-22.743zm0 33.823a11.08 11.08 0 1111.081-11.079 11.078 11.078 0 01-11.081 11.079z" style="mix-blend-mode:color-dodge;isolation:isolate" fill="#536be6"/></g></g></svg>