<svg xmlns="http://www.w3.org/2000/svg" width="207.307" height="51.363"><path d="M65.671 37.815l-7.551-18.8h5.293l4.9 13.077 4.943-13.077h5.293l-7.55 18.8zm14.635-23.781a2.938 2.938 0 015.877 0 2.938 2.938 0 11-5.877 0zm.467 23.781v-18.8h4.943v18.8zm8.211-2.452l2.141-3.581a10.657 10.657 0 006.5 2.608c2.141 0 3.153-.817 3.153-1.985 0-3.074-11.131-.545-11.131-7.94 0-3.153 2.724-5.916 7.706-5.916a11.976 11.976 0 017.551 2.569l-1.985 3.5a8.106 8.106 0 00-5.566-2.18c-1.79 0-2.958.779-2.958 1.829 0 2.764 11.17.429 11.17 8.018 0 3.464-2.958 5.994-8.173 5.994a12.654 12.654 0 01-8.408-2.916zm21.214-2.258v-9.769h-3.114v-4.322h3.114v-5.136h4.943v5.136h3.814v4.32h-3.814v8.446c0 1.206.623 2.1 1.713 2.1a2.486 2.486 0 001.713-.584l1.051 3.775a6.1 6.1 0 01-4.126 1.207c-3.465.003-5.294-1.787-5.294-5.173zm12.143 4.71v-18.8h4.943v2.53a8.245 8.245 0 015.994-3v4.83a6.384 6.384 0 00-5.994 2.024v12.416zm12.805-9.419a9.591 9.591 0 019.73-9.847c5.644 0 9.419 4.2 9.419 10.314v1.168h-13.973c.35 2.3 2.218 4.2 5.41 4.2a7.86 7.86 0 004.982-1.83l2.219 3.27a11.718 11.718 0 01-7.745 2.608c-5.722.003-10.042-3.85-10.042-9.883zm9.73-5.8a4.335 4.335 0 00-4.593 4.008h9.263a4.308 4.308 0 00-4.67-4.007zm24.285 15.219V35.83a7.671 7.671 0 01-5.955 2.452c-3 0-6.5-2.024-6.5-6.227 0-4.437 3.5-6.072 6.5-6.072a7.677 7.677 0 015.955 2.3v-2.378c0-1.907-1.635-3.152-4.126-3.152a7.9 7.9 0 00-5.41 2.218l-1.946-3.464a12.137 12.137 0 018.213-2.958c4.32 0 8.251 1.713 8.251 7.123v12.143zm0-4.515v-2.335a4.97 4.97 0 00-3.97-1.674c-1.946 0-3.542 1.051-3.542 2.842s1.6 2.8 3.542 2.8a4.945 4.945 0 003.97-1.633zm33.164 4.515V25.944c0-1.751-.778-3-2.8-3a4.99 4.99 0 00-3.892 2.179v12.692h-4.982V25.944c0-1.751-.779-3-2.8-3a5.123 5.123 0 00-3.893 2.179v12.692h-4.943v-18.8h4.94v2.413a8.424 8.424 0 016.15-2.88c2.763 0 4.554 1.284 5.216 3.386a8.052 8.052 0 016.46-3.386c3.464 0 5.527 1.829 5.527 5.683v13.584z" fill="#232b76"/><path d="M25.681 51.363a25.681 25.681 0 1125.682-25.682 25.71 25.71 0 01-25.682 25.682zm0-42.83a17.149 17.149 0 1017.15 17.148 17.168 17.168 0 00-17.15-17.149z" fill="#9fdaf9"/><circle cx="7.679" cy="7.679" r="7.679" fill="#ef003e" transform="translate(28.241 7.764)"/></svg>