<svg xmlns="http://www.w3.org/2000/svg" width="57.981" height="57.979"><defs><style>.a{fill:#009fe3}</style></defs><path class="a" d="M55.046 16.292c3.225-6.612 3.879-11.967 1.24-14.606C53.695-.908 48.505-.461 41.65 2.918a28.941 28.941 0 00-25.328 0C9.47-.46 4.277-.908 1.682 1.684c-2.64 2.641-1.986 8 1.248 14.621a28.938 28.938 0 00-.014 25.347C-.466 48.504-.91 53.692 1.682 56.286a6.342 6.342 0 004.658 1.637c2.706 0 6.114-1.012 9.944-2.881a28.935 28.935 0 0025.407 0c3.827 1.866 7.237 2.878 9.938 2.877a6.344 6.344 0 004.658-1.636c2.59-2.59 2.145-7.775-1.227-14.622a28.937 28.937 0 00-.014-25.369zM54.92 3.05c1.8 1.8 1.419 5.817-1.006 11.157A29.209 29.209 0 0043.756 4.06C49.1 1.637 53.122 1.258 54.92 3.05zM41.662 32.092l-.647-1.238a4.006 4.006 0 00-2.89-2.084l-4.433-.719a3.974 3.974 0 00-2.744.551l-1.01.629a9.53 9.53 0 00-4.518 8.137v.833a5.063 5.063 0 01-.651 2.468q-1.925-1.755-3.821-3.648-1.923-1.925-3.652-3.822V20.714a2.044 2.044 0 01.562-1.411l4.812-5.071a7.752 7.752 0 012.12-1.581l6.709-3.4a7.8 7.8 0 013.508-.839l11.563.037a27.245 27.245 0 016.318 7.871 74.655 74.655 0 01-8.4 12.458 3.971 3.971 0 00-.969 1.168q-.903 1.076-1.857 2.146zm1.356 1.384v1.208l-.4-.76c.137-.147.267-.293.4-.446zm-9.912 7.278l-1.5-1.186a1.4 1.4 0 00-2.161.559l-1.16 2.791a1.369 1.369 0 00-.064.773 102.926 102.926 0 01-2-1.713 7 7 0 001.127-3.775v-.831a7.609 7.609 0 013.607-6.5l1.01-.629a2.051 2.051 0 011.414-.287l4.433.721a2.059 2.059 0 011.488 1.074l.979 1.87q-1.577 1.712-3.26 3.4-1.94 1.94-3.913 3.736zm-.547 8.741a12.111 12.111 0 00-2.528-.277h-4.008c-.085 0-.17.015-.255.017a99.012 99.012 0 003.216-2.439q1.806 1.44 3.575 2.702zm-2.3-6.277l.7-1.7.676.541q-.676.594-1.353 1.171zm-6.735-1.077c-.108.088-.215.177-.33.256l-3.154-3.563q1.737 1.721 3.482 3.307zm30.391-23.682A26.78 26.78 0 0155 21.557l-3.4 5.352a2.04 2.04 0 01-1.73.95h-2.191a74.517 74.517 0 006.236-9.4zM21.106 5.861l1-3.037a27.02 27.02 0 0121.916 3.682l-9.013-.03a9.748 9.748 0 00-4.384 1.048l-6.709 3.4a9.673 9.673 0 00-2.649 1.974l-4.812 5.076a3.967 3.967 0 00-1.091 2.738v10.32A77.907 77.907 0 015.075 16.354c.374-.7.78-1.389 1.212-2.054l4.895-.676a1.418 1.418 0 00.4-.115l4.071-1.874A9.152 9.152 0 0019.4 8.466l1.532-2.254a1.421 1.421 0 00.174-.351zm-1.264-2.332l-.547 1.654L17.8 7.379a7.209 7.209 0 01-2.953 2.5l-4 1.836-3 .416a27.167 27.167 0 0111.995-8.602zM3.048 3.05c1.8-1.793 5.823-1.414 11.17 1.01A29.2 29.2 0 004.047 14.24C1.631 8.883 1.264 4.833 3.048 3.05zM1.932 28.992c0-.852.044-1.694.122-2.527l2.5.045a2.349 2.349 0 011.916.991l.73 1.023a2.337 2.337 0 01.43 1.353.965.965 0 00.026.223l1.335 5.586a6.95 6.95 0 01.115 2.63L7.963 46a26.926 26.926 0 01-6.031-17.008zm1.116 25.93c-1.793-1.8-1.413-5.819 1.01-11.162A29.2 29.2 0 0014.2 53.916c-5.336 2.425-9.355 2.801-11.152 1.006zm6.591-7.044l1.369-9.277a8.84 8.84 0 00-.147-3.36l-1.3-5.48a4.257 4.257 0 00-.783-2.35l-.722-1.027a4.279 4.279 0 00-3.479-1.809L2.3 24.533a26.877 26.877 0 011.755-6.059 85.351 85.351 0 0011.314 15.477 6.987 6.987 0 001.754 4.506l4.923 5.561a1.4 1.4 0 001.762.275l.124-.073a6.865 6.865 0 001.043-.781q1.244 1.093 2.478 2.112a72.115 72.115 0 01-11.137 7.341 27.18 27.18 0 01-6.677-5.014zm19.351 8.173a26.909 26.909 0 01-10.49-2.118l2.39-1.4a10.185 10.185 0 015.132-1.39h4.007a10.147 10.147 0 013.351.568l5.825 2.029c.1.057.2.118.306.173a26.9 26.9 0 01-10.521 2.138zm10.933-4.1a76.157 76.157 0 01-9.409-6.4l.265-.218a1.385 1.385 0 00.608-.259l2.2-1.745a1.382 1.382 0 00.5-.855q2.152-1.943 4.3-4.084 1.47-1.47 2.845-2.946l1.081 2.066a1.4 1.4 0 002.637-.647v-5.02a2.036 2.036 0 01.155-.773c.261-.312.517-.623.773-.935A2.03 2.03 0 0147 29.792h2.87a3.962 3.962 0 003.361-1.846l2.383-3.75a26.994 26.994 0 01-13.578 28.496zm15 2.971c-1.8 1.795-5.813 1.419-11.15-1a29.2 29.2 0 0010.144-10.144c2.416 5.33 2.796 9.349 1.003 11.144z"/><path class="a" d="M48.923 42.869l-2.447-2.588a1.4 1.4 0 00-1.016-.438h-4.145a1.4 1.4 0 00-1.38 1.156l-.364 2.061a1.4 1.4 0 001.112 1.618l3.9.762a2.205 2.205 0 00.263.024h3.349a1.4 1.4 0 00.724-2.594zm-4.025.661l-3.333-.65.193-1.1h3.466l1.659 1.754z"/></svg>